<?xml version="1.0" encoding="utf-8"?>
<!-- Svg Vector Icons : http://www.onlinewebfonts.com/icon -->
<!DOCTYPE svg PUBLIC "-//W3C//DTD SVG 1.1//EN" "http://www.w3.org/Graphics/SVG/1.1/DTD/svg11.dtd">
<svg version="1.1" xmlns="http://www.w3.org/2000/svg" xmlns:xlink="http://www.w3.org/1999/xlink" x="0px" y="0px" viewBox="0 0 256 256" enable-background="new 0 0 256 256" xml:space="preserve">
<metadata> Svg Vector Icons : http://www.onlinewebfonts.com/icon </metadata>
<g><g><g><g><path fill="#000000" d="M102.5 52.4a17.7 17.7 0 1 0 35.4 0a17.7 17.7 0 1 0 -35.4 0z"/><path fill="#000000" d="M116.8,93.8l0,0.2h0C116.8,93.9,116.8,93.9,116.8,93.8L116.8,93.8z"/><path fill="#000000" d="M132.3,145.6c0.3-2.2,0.7-4.6,1-7c2.8,5,11,7,14.7,0.5c4.7-8.2,18.1-28.6,18.1-28.6s-15.7-23.5-21.9-29.8c-1.2-1.2-2.5-1.9-3.7-2.2l0-0.4c-8.2-2.9-11.7-2-11.7-2l-12,17.8l-0.1,0.1l0-0.1l-1.9-0.5l1.9,0.3l4.4-16.6l0.3,0l0.4-2.8l-7.1-1l-0.4,2.8l0.4,0v17.5c0,0-6.4-21.2-7.2-21c0,0-2.2-3.4-12.2-0.9c-7.9,0.6-15.9,1.2-23.8,1.7c-4-6-7.5-12.4-9.9-19.2c-1.8-5-6.5-6.2-10.5-5L27.6,11.1c-0.7-1.1-2.1-1.4-3.2-0.8c-1.1,0.7-1.5,2.1-0.8,3.2l23.7,38.3c-1.8,1.9-2.6,4.7-1.4,7.9c3,8.3,17.4,32.6,17.4,32.6s14.8-2,25.8-3.2c0.6,2.8,1.2,4.8,1.2,4.8l-7.6,53.2c-6,8.9-11.9,17.8-17.9,26.7c-2.9,4.3-1.8,10.7,1.8,14.2c12.4,12.2,24.8,24.4,37.3,36.6c0.5,0.5,0.9,0.8,1.4,1.2c-0.1,2.9-0.3,5.8-0.5,8.7c-1.1,15.1,22.4,15,23.5,0c1.7-23.8,0-47.7,0.9-71.5l0.7,0.1c0-0.2,0.6-4.1,1.4-9.9h9.3V241h88.1v-87.5h4.1v-7.8L132.3,145.6L132.3,145.6z M138.5,101.5l0.1-1.6c2.5,3.2,4.7,6.6,6.8,10c-3.6,6.2-7.2,12.5-10.7,18.7C136.3,117.5,137.8,106.7,138.5,101.5z M105.3,193.4c-5.1-5-10.2-10-15.3-15.1c4.2-6.3,8.4-12.5,12.6-18.8l3.1,0.4C105.1,171.2,105.2,182.3,105.3,193.4z M113.4,118.1c-2-0.3-3.4-2.1-3.1-4.2c0.3-2,2.1-3.4,4.2-3.1c2,0.3,3.4,2.1,3.1,4.2C117.2,117,115.4,118.4,113.4,118.1z M114.9,107.2c-2-0.3-3.4-2.1-3.2-4.2c0.3-2,2.1-3.4,4.2-3.1c2,0.3,3.4,2.1,3.2,4.2C118.8,106,116.9,107.4,114.9,107.2z"/></g></g><g></g><g></g><g></g><g></g><g></g><g></g><g></g><g></g><g></g><g></g><g></g><g></g><g></g><g></g><g></g></g></g>
</svg>